<svg width="47" height="47" viewBox="0 0 47 47" fill="none" xmlns="http://www.w3.org/2000/svg">
<g clip-path="url(#clip0_2_1569)">
<mask id="mask0_2_1569" style="mask-type:luminance" maskUnits="userSpaceOnUse" x="0" y="0" width="47" height="47">
<path d="M47 23.5C47 10.5213 36.4787 0 23.5 0C10.5213 0 0 10.5213 0 23.5C0 36.4787 10.5213 47 23.5 47C36.4787 47 47 36.4787 47 23.5Z" fill="white"/>
</mask>
<g mask="url(#mask0_2_1569)">
<path d="M47 23.5C47 10.5213 36.4787 0 23.5 0C10.5213 0 0 10.5213 0 23.5C0 36.4787 10.5213 47 23.5 47C36.4787 47 47 36.4787 47 23.5Z" fill="#FFD200"/>
<path d="M19.679 16.2408C18.4964 12.4985 21.5728 10.5434 23.2589 10.0337C22.1608 11.543 23.5057 12.8385 24.3154 13.2976C27.167 14.7109 28.3003 16.6592 28.5105 17.4566C29.0999 19.5448 27.8996 21.1762 27.2257 21.7309L20.5318 17.9841C19.9756 17.0679 19.7315 16.4402 19.679 16.2408Z" fill="#3FC366"/>
<path d="M15.6097 17.9879C7.23888 18.9485 1.94424 25.5925 0.343262 28.7945V53.3237L22.471 60.528L39.6243 40.8018C40.1732 35.5872 37.7947 29.8237 36.5367 27.5937C31.1849 18.3996 20.3554 17.3589 15.6097 17.9879Z" fill="white"/>
<path d="M10.2922 22.6779C3.43085 25.0107 1.48681 30.7399 1.37246 33.3129L0.343262 44.4625L30.19 50.8092L35.5075 43.7764C37.9776 38.8362 36.0794 33.5988 34.8214 31.5976C28.6462 20.0706 15.8956 20.8482 10.2922 22.6779Z" fill="#FFEB99"/>
<path d="M15.2329 25.0197C13.762 24.654 12.0877 26.2953 11.4934 28.6856C11.3062 29.53 11.0348 31.4247 11.4465 32.248C12.1898 32.3624 13.9852 32.7283 15.2202 33.2772C15.6008 32.986 16.4536 31.9247 16.8203 30.01C17.4146 27.6197 16.7039 25.3854 15.2329 25.0197Z" fill="#4C4519"/>
<path d="M29.5133 30.1199C28.0931 29.5901 26.2439 31.0314 25.3829 33.3391C25.1015 34.1569 24.6174 36.0089 24.9333 36.8734C25.6589 37.071 27.4013 37.6377 28.5663 38.3229C28.9774 38.0765 29.9448 37.1187 30.5258 35.2579C31.3867 32.95 30.9334 30.6497 29.5133 30.1199Z" fill="#4C4519"/>
<path d="M8.10054 35.4202C10.1113 35.999 11.9887 35.6086 12.2939 34.5484C12.5991 33.4881 11.2164 32.1594 9.2057 31.5807C7.19496 31.0019 5.31754 31.3922 5.01236 32.4525C4.70718 33.5127 6.0898 34.8414 8.10054 35.4202Z" fill="#FFA4A4"/>
<path d="M28.4265 43.0107C30.2948 43.9528 32.2121 43.9179 32.7088 42.9328C33.2056 41.9477 32.0938 40.3853 30.2256 39.4432C28.3573 38.5011 26.44 38.5359 25.9433 39.521C25.4465 40.5062 26.5583 42.0685 28.4265 43.0107Z" fill="#FFA4A4"/>
</g>
</g>
<defs>
<clipPath id="clip0_2_1569">
<rect width="47" height="47" fill="white"/>
</clipPath>
</defs>
</svg>
