<svg width="33" height="37" viewBox="0 0 33 37" fill="none" xmlns="http://www.w3.org/2000/svg">
<g clip-path="url(#clip0_19_152)">
<path fill-rule="evenodd" clip-rule="evenodd" d="M16.5044 18.5001L0.979004 9.7288L16.5044 0.951172L21.063 3.53921L13.5348 7.79734C8.91103 10.4109 14.7266 13.6937 19.3503 11.0802L26.8785 6.82842L32.0103 9.7288L16.5044 18.5001Z" fill="#E2F0FF" fill-opacity="0.7"/>
<path fill-rule="evenodd" clip-rule="evenodd" d="M16.504 36.0428V30.9432L8.96929 26.7424C4.34552 24.129 4.34552 17.1808 8.96929 19.8007L16.504 24.0588V18.5195L32.023 9.72266V27.2652L27.7965 29.6492V21.1457C27.7965 15.9187 21.9353 19.2333 21.9353 24.4413V32.9703L16.504 36.0428Z" fill="#FDE6E5" fill-opacity="0.7"/>
<path fill-rule="evenodd" clip-rule="evenodd" d="M0.979004 9.729V27.2715L16.5044 36.0427V30.9432L8.96964 26.7424C4.34588 24.1289 4.34588 17.1808 8.96964 19.8007L16.5044 24.0588V18.5194" fill="#FFF0CB" fill-opacity="0.7"/>
<path d="M16.5042 19.4565C16.332 19.4566 16.163 19.4103 16.0158 19.3226L0.490422 10.5513C0.341492 10.4684 0.217658 10.3483 0.131517 10.2033C0.0453761 10.0583 0 9.89356 0 9.72583C0 9.5581 0.0453761 9.39338 0.131517 9.24838C0.217658 9.10338 0.341492 8.98329 0.490422 8.90034L16.0158 0.129092C16.1641 0.0445418 16.3326 0 16.5042 0C16.6759 0 16.8444 0.0445418 16.9926 0.129092L21.5513 2.71075C21.7001 2.79459 21.8237 2.91533 21.9096 3.06081C21.9956 3.20629 22.0409 3.37138 22.0409 3.53943C22.0409 3.70748 21.9956 3.87256 21.9096 4.01804C21.8237 4.16353 21.7001 4.28426 21.5513 4.3681L14.0231 8.62624C13.1309 9.12982 12.8182 9.58242 12.8182 9.84377C12.8182 10.1051 13.0657 10.3473 13.4695 10.5705C14.6743 11.2525 16.9146 11.3609 18.8682 10.2517L26.3964 5.99997C26.5447 5.91542 26.7133 5.87087 26.885 5.87087C27.0565 5.87087 27.2251 5.91542 27.3734 5.99997L32.5051 8.90034C32.654 8.98329 32.7778 9.10338 32.864 9.24838C32.9501 9.39338 32.9955 9.5581 32.9955 9.72583C32.9955 9.89356 32.9501 10.0583 32.864 10.2033C32.7778 10.3483 32.654 10.4684 32.5051 10.5513L16.9862 19.3226C16.8401 19.4075 16.6741 19.4535 16.5042 19.4565ZM2.93255 9.72902L16.5042 17.3784L30.0695 9.72902L26.8914 7.93144L19.8515 11.9091C18.7507 12.559 17.5011 12.9285 16.2168 12.9843C14.9325 13.04 13.6545 12.7799 12.4991 12.2278C12.0367 12.0076 11.6426 11.6704 11.3576 11.2514C11.0725 10.8323 10.9068 10.3464 10.8776 9.84377C10.8776 9.09796 11.2553 7.9888 13.0593 6.96889L19.1222 3.53943L16.5173 2.06055L2.93255 9.72902Z" fill="#31A0FE"/>
<path d="M16.5042 36.9987C16.333 36.9981 16.1647 36.9541 16.0158 36.8712C15.8673 36.7873 15.7439 36.6664 15.6581 36.521C15.5724 36.3755 15.5273 36.2105 15.5274 36.0425V31.5295L8.48108 27.5518C7.34039 26.9147 6.38095 26.008 5.69042 24.9145C4.9999 23.821 4.60029 22.5756 4.52809 21.2921C4.48521 20.762 4.58752 20.2304 4.82447 19.7519C5.06144 19.2735 5.42447 18.8655 5.87615 18.5702C6.52738 18.194 7.6996 17.9327 9.45793 18.9526L15.5274 22.3821V18.5001C15.5266 18.332 15.5715 18.1666 15.6572 18.0211C15.7431 17.8755 15.8668 17.7548 16.0158 17.6714L31.5348 8.89373C31.6833 8.80978 31.8518 8.76559 32.0233 8.76563C32.1949 8.76566 32.3633 8.80989 32.5118 8.89388C32.6604 8.97788 32.7837 9.09867 32.8694 9.24411C32.9551 9.38955 33.0001 9.55451 33 9.7224V27.2649C32.9988 27.4326 32.9532 27.5971 32.8676 27.7424C32.782 27.8876 32.6593 28.0086 32.5116 28.0935L28.2851 30.4776C28.1368 30.5622 27.9683 30.6067 27.7967 30.6067C27.625 30.6067 27.4566 30.5622 27.3083 30.4776C27.1587 30.3947 27.0347 30.2741 26.9487 30.1284C26.8629 29.9827 26.8183 29.8172 26.8199 29.6489V21.1455C26.8655 20.6373 26.7568 20.1272 26.5072 19.6793C26.4665 19.6111 26.407 19.5553 26.3357 19.5182C26.2645 19.4811 26.184 19.464 26.1035 19.4689C24.9768 19.4689 22.8994 21.5215 22.8994 24.441V32.97C22.9002 33.1374 22.8561 33.302 22.7715 33.4474C22.6869 33.5928 22.5649 33.7139 22.4175 33.7987L16.9992 36.8712C16.8484 36.9551 16.6777 36.9991 16.5042 36.9987ZM7.16558 20.1638C7.05737 20.1563 6.94915 20.1784 6.85299 20.2275C6.71206 20.3653 6.60532 20.533 6.54097 20.7175C6.47661 20.9021 6.45636 21.0986 6.48179 21.2921C6.5545 22.2392 6.86397 23.1542 7.38294 23.9568C7.90192 24.7594 8.61448 25.4248 9.45793 25.8944L16.9926 30.1462C17.1404 30.2311 17.2631 30.3521 17.3486 30.4974C17.4343 30.6426 17.4799 30.8071 17.4811 30.9749V34.3916L20.9392 32.4282V24.441C20.9392 20.6164 23.7591 17.5566 26.097 17.5566C26.4923 17.5534 26.8825 17.646 27.2325 17.8261C27.5824 18.0064 27.8814 18.2686 28.1028 18.5893C28.5764 19.3559 28.8033 20.2445 28.754 21.139V28.0171L31.0268 26.7422V11.3733L17.4616 19.0227V24.0139C17.4604 24.1816 17.4147 24.3462 17.3291 24.4914C17.2435 24.6367 17.1209 24.7577 16.9731 24.8426C16.8239 24.9241 16.6557 24.9669 16.4847 24.9669C16.3138 24.9669 16.1456 24.9241 15.9963 24.8426L8.46155 20.5844C8.07198 20.341 7.62658 20.1964 7.16558 20.1638Z" fill="#FD675A"/>
<path d="M16.5042 36.999C16.3329 36.9984 16.1647 36.9544 16.0157 36.8715L0.490378 28.0939C0.342298 28.011 0.219176 27.8913 0.133425 27.7469C0.0476741 27.6025 0.00232569 27.4387 0.00195312 27.2716V9.72911C0.00195312 9.47553 0.10487 9.23232 0.288065 9.05301C0.47126 8.87368 0.719727 8.77295 0.978804 8.77295C1.23788 8.77295 1.48635 8.87368 1.66954 9.05301C1.85273 9.23232 1.95566 9.47553 1.95566 9.72911V26.7425L15.5273 34.3919V31.5233L8.4745 27.5584C5.03598 25.6142 3.74655 21.5474 4.96435 19.4756C5.61559 18.3729 7.13947 17.6526 9.45135 18.9593L15.5208 22.3888V18.5068C15.5208 18.2531 15.6237 18.0099 15.807 17.8306C15.9902 17.6513 16.2387 17.5506 16.4977 17.5506C16.7567 17.5506 17.0052 17.6513 17.1884 17.8306C17.3717 18.0099 17.4745 18.2531 17.4745 18.5068V24.0462C17.4733 24.2138 17.4277 24.3783 17.3421 24.5236C17.2565 24.6688 17.1339 24.7899 16.9861 24.8749C16.8378 24.9593 16.6693 25.004 16.4977 25.004C16.3261 25.004 16.1576 24.9593 16.0093 24.8749L8.4745 20.6167C7.93398 20.3108 6.98318 19.8837 6.65757 20.4318C6.07145 21.4326 6.84641 24.4287 9.45135 25.9011L16.9926 30.1401C17.1413 30.2256 17.2646 30.3476 17.3502 30.4941C17.4359 30.6405 17.481 30.8064 17.481 30.9752L17.4811 36.0748C17.4798 36.2424 17.4342 36.4069 17.3486 36.5522C17.2631 36.6974 17.1403 36.8185 16.9926 36.9035C16.8402 36.9738 16.6725 37.0065 16.5042 36.999Z" fill="#FFBB00"/>
<path d="M9.62723 15.568C9.45565 15.5695 9.28688 15.5254 9.1388 15.4405L0.490422 10.5513C0.341492 10.4684 0.217658 10.3483 0.131517 10.2033C0.0453761 10.0583 0 9.89356 0 9.72583C0 9.5581 0.0453761 9.39338 0.131517 9.24838C0.217658 9.10339 0.341492 8.98329 0.490422 8.90034L16.0158 0.129092C16.1641 0.0445418 16.3326 0 16.5042 0C16.6759 0 16.8444 0.0445418 16.9926 0.129092L21.5513 2.71075C21.7001 2.79459 21.8237 2.91533 21.9096 3.06081C21.9956 3.20629 22.0409 3.37138 22.0409 3.53943C22.0409 3.70748 21.9956 3.87256 21.9096 4.01804C21.8237 4.16353 21.7001 4.28426 21.5513 4.3681L14.0231 8.62624C13.1309 9.12982 12.8182 9.58242 12.8182 9.84377C12.8182 10.1051 13.0657 10.3473 13.4695 10.5705C14.6743 11.2525 16.9145 11.3609 18.8682 10.2517L26.3964 5.99997C26.6211 5.87318 26.8878 5.83888 27.1382 5.90462C27.3886 5.97037 27.602 6.13078 27.7315 6.35056C27.8611 6.57033 27.8961 6.83149 27.8289 7.07656C27.7617 7.32162 27.5979 7.53053 27.3734 7.65733L19.8451 11.9091C18.7442 12.559 17.4946 12.9285 16.2103 12.9843C14.926 13.04 13.6479 12.7799 12.4927 12.2278C12.0301 12.0076 11.6361 11.6704 11.351 11.2514C11.066 10.8323 10.9004 10.3464 10.8711 9.84377C10.8711 9.09796 11.2488 7.9888 13.0527 6.96889L19.1157 3.53943L16.5108 2.06055L2.93906 9.7099L10.1026 13.7641C10.2892 13.8692 10.435 14.0317 10.5175 14.2262C10.6 14.4208 10.6146 14.6367 10.5589 14.8402C10.5032 15.0437 10.3804 15.2235 10.2096 15.3516C10.0387 15.4797 9.82944 15.5491 9.6142 15.5489L9.62723 15.568Z" fill="#31A0FE"/>
</g>
<defs>
<clipPath id="clip0_19_152">
<rect width="33" height="37" fill="white"/>
</clipPath>
</defs>
</svg>
